<svg xmlns="http://www.w3.org/2000/svg" width="400" height="400" viewbox="0 0 400 400"><defs><style>.logo-path{fill:#fff;}</style></defs><path class="logo-path" d="M113.333 28.750 L 113.333 57.500 142.083 57.500 L 170.833 57.500 170.833 28.750 L 170.833 0.000 142.083 0.000 L 113.333 0.000 113.333 28.750 M229.167 171.250 L 229.167 342.500 200.000 342.500 L 170.833 342.500 170.833 214.583 L 170.833 86.667 142.083 86.667 L 113.333 86.667 113.333 214.583 L 113.333 342.500 85.417 342.500 L 57.500 342.500 57.500 285.833 L 57.500 229.167 28.750 229.167 L 0.000 229.167 0.000 314.583 L 0.000 400.000 200.000 400.000 L 400.000 400.000 400.000 200.000 L 400.000 0.000 371.250 0.000 L 342.500 0.000 342.500 171.250 L 342.500 342.500 314.583 342.500 L 286.667 342.500 286.667 171.250 L 286.667 0.000 257.917 0.000 L 229.167 0.000 229.167 171.250"></path></svg>
